<?xml version="1.0" encoding="UTF-8"?>
<svg id="_レイヤー_2" data-name="レイヤー 2" xmlns="http://www.w3.org/2000/svg" viewBox="0 0 336.18 28.63">
  <defs>
    <style>
      .cls-1 {
        fill: #64be37;
      }
    </style>
  </defs>
  <g id="_レイヤー_1-2" data-name="レイヤー 1">
    <g>
      <path class="cls-1" d="M22.8,0C17.33,0,15.03,3.96,15.03,3.96L0,27.94h9.04l4.38-7.3h4.19l-2.26,7.3h8.91L31.37,0h-8.57ZM19.27,14.89h-2.45l4.76-7.68-2.3,7.68ZM22.8,0C17.33,0,15.03,3.96,15.03,3.96L0,27.94h9.04l4.38-7.3h4.19l-2.26,7.3h8.91L31.37,0h-8.57ZM19.27,14.89h-2.45l4.76-7.68-2.3,7.68ZM72.64,0l-12.25,27.94h-15.03l-2.82-9.19,5.32-12.15s.52-1.22-.19-1.36h-1.98l-10.17,22.71h-9.42L38.57,0h9.85s5.32-.1,7.49,1.13c0,0,1.98.85,1.56,3.67,0,0-.85,4.81-4.48,7.73,0,0-1.08,1.18-5.13,1.23l4.47,10.98L63.31,0h9.33ZM72.64,0l-12.25,27.94h-15.03l-2.82-9.19,5.32-12.15s.52-1.22-.19-1.36h-1.98l-10.17,22.71h-9.42L38.57,0h9.85s5.32-.1,7.49,1.13c0,0,1.98.85,1.56,3.67,0,0-.85,4.81-4.48,7.73,0,0-1.08,1.18-5.13,1.23l4.47,10.98L63.31,0h9.33ZM104.9,0l-12.15,27.94h-8.34l7.02-16.54-10.04,16.54h-5.75l4.05-16.68-7.44,16.68h-8.19L76.12,0h12.11l-2.97,12.2L92.75,0h12.15ZM104.9,0l-12.15,27.94h-8.34l7.02-16.54-10.04,16.54h-5.75l4.05-16.68-7.44,16.68h-8.19L76.12,0h12.11l-2.97,12.2L92.75,0h12.15ZM117.76,0l-12.01,27.94h-9.37L108.48,0h9.28ZM117.76,0l-12.01,27.94h-9.37L108.48,0h9.28ZM131.94,5.7l-9.51,22.24h-9.28l9.47-22.24h-5.23L119.69,0h20.45l-2.59,5.7h-5.61ZM131.94,5.7l-9.51,22.24h-9.28l9.47-22.24h-5.23L119.69,0h20.45l-2.59,5.7h-5.61ZM153.8,13.71s1.46.99.85,3.67c0,0-1.65,6.27-4.85,8.1,0,0-3.72,2.45-8.57,2.45h-16.15l2.31-4.43h13.28s1.65.18,2.64-.9c0,0,.94-.75,1.6-3.53,0,0,.38-.95-.85-1.74l-5.56-3.72s-1.84-1.46-1.13-3.87c0,0,1.7-6.26,6.26-8.01,0,0,2.92-1.51,7.44-1.55h10.83l-2.21,4.57h-9.37s-.99-.19-2.07.66c0,0-1.13,1.37-1.32,2.45,0,0-.47,1.04.71,1.69,0,0,4.1,2.21,6.17,4.15M153.8,13.71s1.46.99.85,3.67c0,0-1.65,6.27-4.85,8.1,0,0-3.72,2.45-8.57,2.45h-16.15l2.31-4.43h13.28s1.65.18,2.64-.9c0,0,.94-.75,1.6-3.53,0,0,.38-.95-.85-1.74l-5.56-3.72s-1.84-1.46-1.13-3.87c0,0,1.7-6.26,6.26-8.01,0,0,2.92-1.51,7.44-1.55h10.83l-2.21,4.57h-9.37s-.99-.19-2.07.66c0,0-1.13,1.37-1.32,2.45,0,0-.47,1.04.71,1.69,0,0,4.1,2.21,6.17,4.15M185.83,0l-9.66,21.67s-3.06,7.82-14.98,6.88c0,0-8.19-.47-6.36-6.03,0,0,.41-1.54,1.85-4.76.03-.06.06-.13.08-.19C158.27,14.23,164.44,0,164.44,0h9.32l-9.8,22.61s-.47,1.04.57,1.18c0,0,.94.24,1.51-.71L176.45,0h9.38ZM185.83,0l-9.66,21.67s-3.06,7.82-14.98,6.88c0,0-8.19-.47-6.36-6.03,0,0,.41-1.54,1.85-4.76.03-.06.06-.13.08-.19C158.27,14.23,164.44,0,164.44,0h9.32l-9.8,22.61s-.47,1.04.57,1.18c0,0,.94.24,1.51-.71L176.45,0h9.38ZM22.8,0C17.33,0,15.03,3.96,15.03,3.96L0,27.94h9.04l4.38-7.3h4.19l-2.26,7.3h8.91L31.37,0h-8.57ZM19.27,14.89h-2.45l4.76-7.68-2.3,7.68ZM72.64,0l-12.25,27.94h-15.03l-2.82-9.19,5.32-12.15s.52-1.22-.19-1.36h-1.98l-10.17,22.71h-9.42L38.57,0h9.85s5.32-.1,7.49,1.13c0,0,1.98.85,1.56,3.67,0,0-.85,4.81-4.48,7.73,0,0-1.08,1.18-5.13,1.23l4.47,10.98L63.31,0h9.33ZM104.9,0l-12.15,27.94h-8.34l7.02-16.54-10.04,16.54h-5.75l4.05-16.68-7.44,16.68h-8.19L76.12,0h12.11l-2.97,12.2L92.75,0h12.15ZM117.76,0l-12.01,27.94h-9.37L108.48,0h9.28ZM131.94,5.7l-9.51,22.24h-9.28l9.47-22.24h-5.23L119.69,0h20.45l-2.59,5.7h-5.61ZM153.8,13.71s1.46.99.85,3.67c0,0-1.65,6.27-4.85,8.1,0,0-3.72,2.45-8.57,2.45h-16.15l2.31-4.43h13.28s1.65.18,2.64-.9c0,0,.94-.75,1.6-3.53,0,0,.38-.95-.85-1.74l-5.56-3.72s-1.84-1.46-1.13-3.87c0,0,1.7-6.26,6.26-8.01,0,0,2.92-1.51,7.44-1.55h10.83l-2.21,4.57h-9.37s-.99-.19-2.07.66c0,0-1.13,1.37-1.32,2.45,0,0-.47,1.04.71,1.69,0,0,4.1,2.21,6.17,4.15M185.83,0l-9.66,21.67s-3.06,7.82-14.98,6.88c0,0-8.19-.47-6.36-6.03,0,0,.41-1.54,1.85-4.76.03-.06.06-.13.08-.19C158.27,14.23,164.44,0,164.44,0h9.32l-9.8,22.61s-.47,1.04.57,1.18c0,0,.94.24,1.51-.71L176.45,0h9.38Z"/>
      <g>
        <path class="cls-1" d="M214.29,11.34c-.77,4.26-2.61,7.31-4.91,8.93-.26-.34-.85-.94-1.22-1.17,1.98-1.28,3.54-3.57,4.29-6.56h-3.84v-1.5h4.39l.29-.06,1.01.37ZM222.65,10.56c-1.26,1.38-2.93,2.99-4.27,4.02,1.18,2.05,2.77,3.7,4.82,4.61-.37.3-.88.93-1.15,1.38-2.56-1.34-4.32-3.76-5.54-6.74v5.91c0,.98-.24,1.44-.82,1.71-.61.26-1.57.3-3.04.3-.06-.45-.35-1.18-.58-1.65,1.09.05,2.11.05,2.42.03.32,0,.45-.11.45-.4V7.07h1.57v2.85c.32,1.2.74,2.35,1.23,3.44,1.23-1.09,2.64-2.58,3.54-3.78l1.38.98Z"/>
        <path class="cls-1" d="M231.01,12.51c1.41-.85,2.99-1.63,3.83-2.1.53-.3.91-.54,1.28-.85l.88,1.46c-.42.26-.86.5-1.38.75-1.06.54-3.19,1.54-4.71,2.53-1.41.93-2.3,1.94-2.3,3.11,0,1.25,1.2,1.98,3.59,1.98,1.71,0,3.86-.24,5.17-.58l-.02,1.82c-1.26.22-3.06.38-5.09.38-3.09,0-5.36-.88-5.36-3.44,0-1.7,1.09-3.01,2.72-4.16-.74-1.34-1.54-3.15-2.29-4.87l1.58-.66c.64,1.73,1.42,3.36,2.1,4.61Z"/>
        <path class="cls-1" d="M254.01,19.94v1.34h-13.93v-1.34h6.16v-2.86h-4.5v-1.33h10.9v1.33h-4.88v2.86h6.24ZM246.04,9.95c-.32,2.75-1.22,4.42-5.11,5.28-.13-.38-.51-.96-.8-1.26,3.44-.64,4.11-1.87,4.35-4.02h-2.69v2.02h-1.46v-3.36h5.91v-1.55h1.52v1.55h6.03v3.03h-1.52v-1.68h-2.79v2.9c0,.4.1.46.62.46h1.78c.43,0,.53-.18.58-1.22.3.19.9.42,1.28.51-.14,1.57-.54,1.97-1.7,1.97h-2.13c-1.55,0-1.9-.38-1.9-1.71v-2.91h-1.98Z"/>
        <path class="cls-1" d="M260.2,9.92c-.7,1.42-1.58,2.66-2.56,3.55-.3-.27-.99-.74-1.38-.96,1.55-1.23,2.79-3.3,3.41-5.51l1.57.34c-.14.45-.3.9-.46,1.33h9.68v1.25h-10.26ZM265.22,15.18c-.53.96-1.17,1.84-1.87,2.64,1.07.78,2.05,1.57,2.69,2.26l-1.18,1.12c-.61-.67-1.54-1.47-2.59-2.27-1.31,1.23-2.83,2.24-4.42,2.99-.21-.3-.77-.9-1.09-1.17,1.58-.66,3.07-1.57,4.32-2.69-.96-.66-1.95-1.28-2.88-1.81l1.07-.98c.91.5,1.92,1.09,2.88,1.73.64-.7,1.18-1.47,1.63-2.3l1.44.48ZM268.34,13.25c-.02,3.99.21,7.04,1.28,7.04.29-.02.37-.9.38-2.21.3.32.69.69,1.01.91-.11,1.98-.42,2.75-1.47,2.77-2.23-.02-2.61-3.02-2.71-7.25h-8.87v-1.26h10.37ZM259.81,12.17v-1.22h9.17v1.22h-9.17Z"/>
        <path class="cls-1" d="M280.69,21.09l-.94-1.5c.54-.05,1.02-.13,1.42-.22,2.05-.46,3.87-1.97,3.87-4.55,0-2.32-1.41-4.16-3.87-4.47-.22,1.44-.5,2.99-.96,4.5-.96,3.27-2.29,5.07-3.87,5.07s-3.04-1.76-3.04-4.43c0-3.59,3.14-6.66,7.15-6.66s6.27,2.69,6.27,6.03-2.15,5.67-6.03,6.23ZM276.39,18.02c.72,0,1.47-1.04,2.21-3.51.4-1.26.69-2.72.88-4.13-2.88.46-4.56,2.96-4.56,4.95,0,1.84.78,2.69,1.47,2.69Z"/>
        <path class="cls-1" d="M294.36,7.23c1.15.86,2.63,2.11,3.43,2.93l-.98,1.12c-.26-.29-.58-.62-.94-1.01v.88h-3.79v-.64c-.64.61-1.38,1.2-2.24,1.74-.18-.32-.62-.83-.91-1.04,1.92-1.14,3.33-2.71,4.1-3.99h1.34ZM291.73,16.53c-.03.27-.06.56-.11.83h5.62v4.26h-1.31v-.48h-3.25v.58h-1.28v-3.36c-.29,1.1-.75,2.18-1.46,3.04-.21-.26-.74-.74-1.01-.9,1.47-1.82,1.63-4.34,1.63-6.15v-2.47h6.42v4.64h-5.25ZM295.65,15.45v-.8h-3.79c0,.26-.02.53-.03.8h3.83ZM291.86,12.96v.77h3.79v-.77h-3.79ZM295.68,10.11c-.56-.56-1.2-1.14-1.78-1.6-.4.5-.86,1.06-1.42,1.6h3.2ZM292.68,18.45v1.57h3.25v-1.57h-3.25ZM299.54,17.81h-1.39v-8.84h1.39v8.84ZM303.1,7.37v12.52c0,.88-.19,1.31-.75,1.57-.54.24-1.44.29-2.85.27-.06-.4-.29-1.07-.48-1.5,1.01.05,1.94.03,2.26.03.26-.02.38-.11.38-.38V7.37h1.44Z"/>
        <path class="cls-1" d="M309.36,18.32c.7,1.1,2.02,1.62,3.78,1.68,1.78.06,5.33.02,7.33-.11-.18.35-.42,1.06-.5,1.52-1.81.08-5.03.11-6.85.03-2.03-.08-3.41-.61-4.42-1.84-.75.66-1.52,1.3-2.35,1.98l-.77-1.54c.72-.45,1.57-1.04,2.32-1.65v-3.76h-2.05v-1.38h3.51v5.06ZM308.63,10.84c-.51-.75-1.66-1.82-2.67-2.53l1.1-.9c.99.69,2.19,1.68,2.74,2.45l-1.17.98ZM312.13,10.24c-.35.58-.75,1.1-1.14,1.54-.29-.22-.91-.56-1.26-.72.99-.93,1.82-2.37,2.29-3.81l1.39.3c-.16.48-.37.96-.58,1.41h1.54v-1.9h1.47v1.9h3.67v1.28h-3.67v1.73h4.34v1.26h-10.21v-1.26h4.4v-1.73h-2.24ZM311.33,18.86v-4.55h7.79v4.55h-7.79ZM312.79,17.65h4.79v-2.13h-4.79v2.13Z"/>
        <path class="cls-1" d="M336.18,10.44s-.02.53-.03.74c-.35,6.48-.66,8.85-1.36,9.67-.43.51-.85.67-1.47.74-.58.06-1.6.05-2.54,0-.03-.43-.24-1.09-.53-1.54,1.06.1,2.03.1,2.43.1.35,0,.54-.05.74-.24.54-.51.88-2.71,1.15-7.94h-5.01c-.24,3.3-1.33,7.17-5.87,9.86-.24-.37-.8-.93-1.15-1.2,4.16-2.38,5.2-5.78,5.44-8.66h-4.96v-1.52h5.04v-3.36h1.57v3.36h6.56Z"/>
      </g>
    </g>
  </g>
</svg>