<?xml version="1.0" encoding="UTF-8"?>
<svg id="_レイヤー_2" data-name="レイヤー 2" xmlns="http://www.w3.org/2000/svg" viewBox="0 0 185.83 28.63">
  <defs>
    <style>
      .cls-1 {
        fill: #fff;
      }
    </style>
  </defs>
  <g id="_レイヤー_1-2" data-name="レイヤー 1">
    <path class="cls-1" d="M22.8,0C17.33,0,15.03,3.96,15.03,3.96L0,27.94h9.04l4.38-7.3h4.19l-2.26,7.3h8.91L31.37,0h-8.57ZM19.27,14.89h-2.45l4.76-7.68-2.3,7.68ZM22.8,0C17.33,0,15.03,3.96,15.03,3.96L0,27.94h9.04l4.38-7.3h4.19l-2.26,7.3h8.91L31.37,0h-8.57ZM19.27,14.89h-2.45l4.76-7.68-2.3,7.68ZM72.64,0l-12.25,27.94h-15.03l-2.82-9.19,5.32-12.15s.52-1.22-.19-1.36h-1.98l-10.17,22.71h-9.42L38.57,0h9.85s5.32-.1,7.49,1.13c0,0,1.98.85,1.56,3.67,0,0-.85,4.81-4.48,7.73,0,0-1.08,1.18-5.13,1.23l4.47,10.98L63.31,0h9.33ZM72.64,0l-12.25,27.94h-15.03l-2.82-9.19,5.32-12.15s.52-1.22-.19-1.36h-1.98l-10.17,22.71h-9.42L38.57,0h9.85s5.32-.1,7.49,1.13c0,0,1.98.85,1.56,3.67,0,0-.85,4.81-4.48,7.73,0,0-1.08,1.18-5.13,1.23l4.47,10.98L63.31,0h9.33ZM104.9,0l-12.15,27.94h-8.34l7.02-16.54-10.04,16.54h-5.75l4.05-16.68-7.44,16.68h-8.19L76.12,0h12.11l-2.97,12.2L92.75,0h12.15ZM104.9,0l-12.15,27.94h-8.34l7.02-16.54-10.04,16.54h-5.75l4.05-16.68-7.44,16.68h-8.19L76.12,0h12.11l-2.97,12.2L92.75,0h12.15ZM117.76,0l-12.01,27.94h-9.37L108.48,0h9.28ZM117.76,0l-12.01,27.94h-9.37L108.48,0h9.28ZM131.94,5.7l-9.51,22.24h-9.28l9.47-22.24h-5.23L119.69,0h20.45l-2.59,5.7h-5.61ZM131.94,5.7l-9.51,22.24h-9.28l9.47-22.24h-5.23L119.69,0h20.45l-2.59,5.7h-5.61ZM153.8,13.71s1.46.99.85,3.67c0,0-1.65,6.27-4.85,8.1,0,0-3.72,2.45-8.57,2.45h-16.15l2.31-4.43h13.28s1.65.18,2.64-.9c0,0,.94-.75,1.6-3.53,0,0,.38-.95-.85-1.74l-5.56-3.72s-1.84-1.46-1.13-3.87c0,0,1.7-6.26,6.26-8.01,0,0,2.92-1.51,7.44-1.55h10.83l-2.21,4.57h-9.37s-.99-.19-2.07.66c0,0-1.13,1.37-1.32,2.45,0,0-.47,1.04.71,1.69,0,0,4.1,2.21,6.17,4.15M153.8,13.71s1.46.99.85,3.67c0,0-1.65,6.27-4.85,8.1,0,0-3.72,2.45-8.57,2.45h-16.15l2.31-4.43h13.28s1.65.18,2.64-.9c0,0,.94-.75,1.6-3.53,0,0,.38-.95-.85-1.74l-5.56-3.72s-1.84-1.46-1.13-3.87c0,0,1.7-6.26,6.26-8.01,0,0,2.92-1.51,7.44-1.55h10.83l-2.21,4.57h-9.37s-.99-.19-2.07.66c0,0-1.13,1.37-1.32,2.45,0,0-.47,1.04.71,1.69,0,0,4.1,2.21,6.17,4.15M185.83,0l-9.66,21.67s-3.06,7.82-14.98,6.88c0,0-8.19-.47-6.36-6.03,0,0,.41-1.54,1.85-4.76.03-.06.06-.13.08-.19C158.27,14.23,164.44,0,164.44,0h9.32l-9.8,22.61s-.47,1.04.57,1.18c0,0,.94.24,1.51-.71L176.45,0h9.38ZM185.83,0l-9.66,21.67s-3.06,7.82-14.98,6.88c0,0-8.19-.47-6.36-6.03,0,0,.41-1.54,1.85-4.76.03-.06.06-.13.08-.19C158.27,14.23,164.44,0,164.44,0h9.32l-9.8,22.61s-.47,1.04.57,1.18c0,0,.94.24,1.51-.71L176.45,0h9.38ZM22.8,0C17.33,0,15.03,3.96,15.03,3.96L0,27.94h9.04l4.38-7.3h4.19l-2.26,7.3h8.91L31.37,0h-8.57ZM19.27,14.89h-2.45l4.76-7.68-2.3,7.68ZM72.64,0l-12.25,27.94h-15.03l-2.82-9.19,5.32-12.15s.52-1.22-.19-1.36h-1.98l-10.17,22.71h-9.42L38.57,0h9.85s5.32-.1,7.49,1.13c0,0,1.98.85,1.56,3.67,0,0-.85,4.81-4.48,7.73,0,0-1.08,1.18-5.13,1.23l4.47,10.98L63.31,0h9.33ZM104.9,0l-12.15,27.94h-8.34l7.02-16.54-10.04,16.54h-5.75l4.05-16.68-7.44,16.68h-8.19L76.12,0h12.11l-2.97,12.2L92.75,0h12.15ZM117.76,0l-12.01,27.94h-9.37L108.48,0h9.28ZM131.94,5.7l-9.51,22.24h-9.28l9.47-22.24h-5.23L119.69,0h20.45l-2.59,5.7h-5.61ZM153.8,13.71s1.46.99.85,3.67c0,0-1.65,6.27-4.85,8.1,0,0-3.72,2.45-8.57,2.45h-16.15l2.31-4.43h13.28s1.65.18,2.64-.9c0,0,.94-.75,1.6-3.53,0,0,.38-.95-.85-1.74l-5.56-3.72s-1.84-1.46-1.13-3.87c0,0,1.7-6.26,6.26-8.01,0,0,2.92-1.51,7.44-1.55h10.83l-2.21,4.57h-9.37s-.99-.19-2.07.66c0,0-1.13,1.37-1.32,2.45,0,0-.47,1.04.71,1.69,0,0,4.1,2.21,6.17,4.15M185.83,0l-9.66,21.67s-3.06,7.82-14.98,6.88c0,0-8.19-.47-6.36-6.03,0,0,.41-1.54,1.85-4.76.03-.06.06-.13.08-.19C158.27,14.23,164.44,0,164.44,0h9.32l-9.8,22.61s-.47,1.04.57,1.18c0,0,.94.24,1.51-.71L176.45,0h9.38Z"/>
  </g>
</svg>