<?xml version="1.0" encoding="UTF-8"?>
<svg id="_レイヤー_2" data-name="レイヤー 2" xmlns="http://www.w3.org/2000/svg" viewBox="0 0 25.15 51.2">
  <defs>
    <style>
      .cls-1 {
        fill: #64be37;
      }
    </style>
  </defs>
  <g id="_レイヤー_1-2" data-name="レイヤー 1">
    <g>
      <path class="cls-1" d="M0,31.4l.67,6.38c.04.41.28.78.65.99.36.21.8.23,1.18.06l3.63-1.63,2.95-25.22L0,31.4Z"/>
      <path class="cls-1" d="M21.59,12.23c-.05-.45-.43-.79-.89-.79h-7.86c-.45,0-.83.34-.88.79l-3.54,30.27c-.08.73.18,1.45.71,1.95l6.79,6.41c.48.45,1.23.45,1.71,0l6.79-6.41c.53-.5.8-1.23.71-1.95l-3.54-30.27Z"/>
      <path class="cls-1" d="M11.8,7.64c.15.59.68,1.01,1.3,1.01h7.37c.61,0,1.15-.42,1.3-1.01l1.39-5.53c.13-.51.01-1.04-.31-1.45-.32-.41-.81-.65-1.33-.65h-9.46c-.52,0-1.01.24-1.34.65-.32.41-.43.95-.31,1.45l1.39,5.53Z"/>
    </g>
  </g>
</svg>